<svg xmlns="http://www.w3.org/2000/svg" viewBox="-26.4849853515625 57.28399658203125 627.9700012207031 460.43200053405764"> <svg xmlns="http://www.w3.org/2000/svg" xmlns:xlink="http://www.w3.org/1999/xlink" xmlnsSerif="http://www.serif.com/" viewBox="324.33087158203125 324.33245849609375 1351.33251953125 1351.330810546875" version="1.1" xml:space="preserve" height="229.9921875" width="230" y="127.28399658203125" x="172.50001525878906" preserveAspectRatio="xMinYMin" fill-rule="evenodd" clip-rule="evenodd" stroke-linejoin="round" stroke-miterlimit="2" style="overflow: visible;"><path transform="matrix(1.54202,0,0,1.54202,-480.343,167.307)" d="M896.648,101.831L1398.17,101.831L1304.42,289.331L1154.42,289.331L1185.67,226.831L984.148,226.831L859.148,476.831L859.331,476.831L960,678.169L990,618.169L1065,768.169L960,978.169L709.24,476.648L896.648,101.831Z" style="fill: #FFFFFF; fill-opacity: 1;"></path><path transform="matrix(1.54202,0,0,1.54202,-480.343,167.307)" d="M521.831,101.831L836.648,101.831L679.24,416.648L521.831,101.831Z" style="fill: #25A1B0; fill-opacity: 1;"></path><path transform="matrix(1.54202,0,0,1.54202,-480.343,167.307)" d="M1273.17,351.831L1095,708.169L1020,558.169L1060.67,476.831L919.331,476.831L919.24,476.648L981.648,351.831L1273.17,351.831Z" style="fill: #FFFFFF; fill-opacity: 1;"></path></svg> <svg y="434.27599658203127" viewBox="2.049999952316284 4.070000171661377 143.8199920654297 13.440000534057617" x="215.59002838134765" height="13.440000534057617" width="143.8199920654297" xmlns="http://www.w3.org/2000/svg" style="overflow: visible;"><g fill="#25A1B0" fill-opacity="1" style=""><path d="M10.44 17.42L2.05 17.42L2.05 4.82L3.38 4.82L3.38 16.27L10.44 16.27L10.44 17.42ZM14.56 17.42L13.28 17.42L13.28 7.97L14.56 7.97L14.56 17.42ZM13.93 5.89L13.93 5.89Q13.54 5.89 13.27 5.62Q13.00 5.35 13.00 4.97L13.00 4.97Q13.00 4.59 13.27 4.33Q13.54 4.07 13.93 4.07L13.93 4.07Q14.33 4.07 14.60 4.32Q14.87 4.57 14.87 4.95L14.87 4.95Q14.87 5.35 14.61 5.62Q14.35 5.89 13.93 5.89ZM22.77 17.42L21.46 17.42L17.26 7.97L18.59 7.97L22.45 16.74L21.82 16.74L25.72 7.97L26.98 7.97L22.77 17.42ZM33.70 17.51L33.70 17.51Q32.22 17.51 31.10 16.89Q29.99 16.27 29.36 15.18Q28.73 14.09 28.73 12.69L28.73 12.69Q28.73 11.29 29.33 10.21Q29.93 9.13 30.99 8.51Q32.04 7.88 33.35 7.88L33.35 7.88Q34.69 7.88 35.72 8.49Q36.76 9.09 37.35 10.18Q37.94 11.27 37.94 12.69L37.94 12.69Q37.94 12.78 37.94 12.88Q37.93 12.98 37.93 13.09L37.93 13.09L29.70 13.09L29.70 12.13L37.24 12.13L36.74 12.51Q36.74 11.48 36.30 10.68Q35.86 9.88 35.10 9.43Q34.34 8.98 33.35 8.98L33.35 8.98Q32.38 8.98 31.61 9.43Q30.83 9.88 30.40 10.69Q29.97 11.50 29.97 12.55L29.97 12.55L29.97 12.74Q29.97 13.82 30.45 14.64Q30.92 15.46 31.78 15.92Q32.63 16.38 33.73 16.38L33.73 16.38Q34.60 16.38 35.34 16.07Q36.09 15.77 36.63 15.14L36.63 15.14L37.35 15.97Q36.72 16.72 35.77 17.12Q34.83 17.51 33.70 17.51ZM50.06 17.51L50.06 17.51Q48.73 17.51 48.01 16.79Q47.29 16.07 47.29 14.76L47.29 14.76L47.29 5.89L48.56 5.89L48.56 14.69Q48.56 15.52 48.99 15.97Q49.41 16.42 50.20 16.42L50.20 16.42Q51.05 16.42 51.61 15.93L51.61 15.93L52.06 16.85Q51.68 17.19 51.15 17.35Q50.62 17.51 50.06 17.51ZM51.44 9.04L45.59 9.04L45.59 7.97L51.44 7.97L51.44 9.04ZM60.10 7.88L60.10 7.88Q61.25 7.88 62.13 8.33Q63 8.77 63.49 9.67Q63.99 10.57 63.99 11.93L63.99 11.93L63.99 17.42L62.71 17.42L62.71 12.06Q62.71 10.57 61.96 9.80Q61.22 9.04 59.87 9.04L59.87 9.04Q58.86 9.04 58.11 9.44Q57.37 9.85 56.96 10.61Q56.56 11.38 56.56 12.46L56.56 12.46L56.56 17.42L55.28 17.42L55.28 4.07L56.56 4.07L56.56 10.57L56.30 10.08Q56.75 9.05 57.74 8.47Q58.73 7.88 60.10 7.88ZM72.36 17.51L72.36 17.51Q70.88 17.51 69.77 16.89Q68.65 16.27 68.02 15.18Q67.39 14.09 67.39 12.69L67.39 12.69Q67.39 11.29 68.00 10.21Q68.60 9.13 69.65 8.51Q70.70 7.88 72.02 7.88L72.02 7.88Q73.35 7.88 74.39 8.49Q75.42 9.09 76.01 10.18Q76.61 11.27 76.61 12.69L76.61 12.69Q76.61 12.78 76.60 12.88Q76.59 12.98 76.59 13.09L76.59 13.09L68.36 13.09L68.36 12.13L75.91 12.13L75.40 12.51Q75.40 11.48 74.96 10.68Q74.52 9.88 73.76 9.43Q73.01 8.98 72.02 8.98L72.02 8.98Q71.05 8.98 70.27 9.43Q69.50 9.88 69.07 10.69Q68.63 11.50 68.63 12.55L68.63 12.55L68.63 12.74Q68.63 13.82 69.11 14.64Q69.59 15.46 70.44 15.92Q71.30 16.38 72.40 16.38L72.40 16.38Q73.26 16.38 74.01 16.07Q74.75 15.77 75.29 15.14L75.29 15.14L76.01 15.97Q75.38 16.72 74.44 17.12Q73.49 17.51 72.36 17.51ZM89.50 17.51L89.50 17.51Q88.15 17.51 87.08 16.90Q86.00 16.29 85.39 15.20Q84.78 14.11 84.78 12.69L84.78 12.69Q84.78 11.25 85.39 10.17Q86.00 9.09 87.08 8.49Q88.15 7.88 89.50 7.88L89.50 7.88Q90.74 7.88 91.72 8.44Q92.70 9.00 93.29 10.07Q93.87 11.14 93.87 12.69L93.87 12.69Q93.87 14.22 93.29 15.30Q92.72 16.38 91.74 16.95Q90.76 17.51 89.50 17.51ZM89.59 16.38L89.59 16.38Q90.59 16.38 91.40 15.92Q92.20 15.46 92.66 14.63Q93.11 13.79 93.11 12.69L93.11 12.69Q93.11 11.57 92.66 10.75Q92.20 9.92 91.40 9.46Q90.59 9.00 89.59 9.00L89.59 9.00Q88.60 9.00 87.80 9.46Q87.01 9.92 86.54 10.75Q86.08 11.57 86.08 12.69L86.08 12.69Q86.08 13.79 86.54 14.63Q87.01 15.46 87.80 15.92Q88.60 16.38 89.59 16.38ZM94.37 17.42L93.15 17.42L93.15 14.58L93.28 12.67L93.10 10.76L93.10 4.07L94.37 4.07L94.37 17.42ZM100.12 17.42L98.84 17.42L98.84 7.97L100.06 7.97L100.06 10.55L99.94 10.10Q100.33 9.02 101.27 8.45Q102.20 7.88 103.59 7.88L103.59 7.88L103.59 9.13Q103.52 9.13 103.45 9.12Q103.37 9.11 103.30 9.11L103.30 9.11Q101.81 9.11 100.96 10.02Q100.12 10.93 100.12 12.60L100.12 12.60L100.12 17.42ZM110.97 17.51L110.97 17.51Q109.49 17.51 108.38 16.89Q107.26 16.27 106.63 15.18Q106.00 14.09 106.00 12.69L106.00 12.69Q106.00 11.29 106.61 10.21Q107.21 9.13 108.26 8.51Q109.31 7.88 110.63 7.88L110.63 7.88Q111.96 7.88 113.00 8.49Q114.03 9.09 114.62 10.18Q115.22 11.27 115.22 12.69L115.22 12.69Q115.22 12.78 115.21 12.88Q115.20 12.98 115.20 13.09L115.20 13.09L106.97 13.09L106.97 12.13L114.52 12.13L114.01 12.51Q114.01 11.48 113.57 10.68Q113.13 9.88 112.37 9.43Q111.62 8.98 110.63 8.98L110.63 8.98Q109.66 8.98 108.88 9.43Q108.11 9.88 107.68 10.69Q107.24 11.50 107.24 12.55L107.24 12.55L107.24 12.74Q107.24 13.82 107.72 14.64Q108.20 15.46 109.05 15.92Q109.91 16.38 111.01 16.38L111.01 16.38Q111.87 16.38 112.62 16.07Q113.36 15.77 113.90 15.14L113.90 15.14L114.62 15.97Q113.99 16.72 113.05 17.12Q112.10 17.51 110.97 17.51ZM125.87 17.42L124.65 17.42L124.65 15.34L124.60 14.99L124.60 11.50Q124.60 10.30 123.92 9.65Q123.25 9.00 121.91 9.00L121.91 9.00Q121.00 9.00 120.17 9.31Q119.34 9.61 118.76 10.12L118.76 10.12L118.19 9.16Q118.91 8.55 119.92 8.22Q120.92 7.88 122.04 7.88L122.04 7.88Q123.88 7.88 124.88 8.79Q125.87 9.70 125.87 11.56L125.87 11.56L125.87 17.42ZM121.39 17.51L121.39 17.51Q120.33 17.51 119.55 17.16Q118.76 16.81 118.35 16.19Q117.94 15.57 117.94 14.76L117.94 14.76Q117.94 14.02 118.29 13.42Q118.64 12.82 119.44 12.45Q120.24 12.08 121.59 12.08L121.59 12.08L124.85 12.08L124.85 13.03L121.63 13.03Q120.26 13.03 119.73 13.52Q119.20 14.00 119.20 14.72L119.20 14.72Q119.20 15.53 119.83 16.02Q120.46 16.51 121.59 16.51L121.59 16.51Q122.67 16.51 123.45 16.01Q124.24 15.52 124.60 14.58L124.60 14.58L124.88 15.46Q124.52 16.40 123.63 16.96Q122.74 17.51 121.39 17.51ZM142.06 7.88L142.06 7.88Q143.21 7.88 144.06 8.33Q144.92 8.77 145.40 9.67Q145.87 10.57 145.87 11.93L145.87 11.93L145.87 17.42L144.59 17.42L144.59 12.06Q144.59 10.57 143.88 9.80Q143.17 9.04 141.88 9.04L141.88 9.04Q140.90 9.04 140.19 9.44Q139.48 9.85 139.10 10.61Q138.71 11.38 138.71 12.46L138.71 12.46L138.71 17.42L137.43 17.42L137.43 12.06Q137.43 10.57 136.71 9.80Q135.99 9.04 134.69 9.04L134.69 9.04Q133.74 9.04 133.02 9.44Q132.30 9.85 131.91 10.61Q131.53 11.38 131.53 12.46L131.53 12.46L131.53 17.42L130.25 17.42L130.25 7.97L131.47 7.97L131.47 10.53L131.27 10.08Q131.71 9.05 132.67 8.47Q133.63 7.88 134.95 7.88L134.95 7.88Q136.33 7.88 137.30 8.58Q138.28 9.27 138.56 10.66L138.56 10.66L138.06 10.46Q138.47 9.31 139.53 8.60Q140.58 7.88 142.06 7.88Z" transform="translate(0, 0)"></path></g></svg> <svg y="389.27618408203125" viewBox="1.409999966621399 8.260000228881836 487.9700012207031 23.03999900817871" x="43.5150146484375" height="23.03999900817871" width="487.9700012207031" xmlns="http://www.w3.org/2000/svg" style="overflow: visible;"><g fill="#FFFFFF" fill-opacity="1" style=""><path d="M13.47 31.30L13.47 31.30Q10.85 31.30 8.66 30.45Q6.46 29.60 4.83 28.05Q3.20 26.50 2.30 24.38Q1.41 22.27 1.41 19.78L1.41 19.78Q1.41 17.28 2.30 15.17Q3.20 13.06 4.85 11.50Q6.50 9.95 8.70 9.10Q10.91 8.26 13.54 8.26L13.54 8.26Q16.38 8.26 18.67 9.18Q20.96 10.11 22.53 11.90L22.53 11.90L19.90 14.46Q18.59 13.15 17.07 12.53Q15.55 11.90 13.73 11.90L13.73 11.90Q11.97 11.90 10.46 12.48Q8.96 13.06 7.87 14.11Q6.78 15.17 6.19 16.61Q5.60 18.05 5.60 19.78L5.60 19.78Q5.60 21.47 6.19 22.91Q6.78 24.35 7.87 25.42Q8.96 26.50 10.43 27.07Q11.90 27.65 13.70 27.65L13.70 27.65Q15.36 27.65 16.91 27.12Q18.46 26.59 19.87 25.34L19.87 25.34L22.24 28.45Q20.48 29.86 18.16 30.58Q15.84 31.30 13.47 31.30ZM22.24 28.45L18.30 27.90L18.30 19.52L22.24 19.52L22.24 28.45ZM46.21 31.30L46.21 31.30Q43.58 31.30 41.38 30.43Q39.17 29.57 37.54 28.02Q35.90 26.46 35.01 24.37Q34.11 22.27 34.11 19.78L34.11 19.78Q34.11 17.28 35.01 15.18Q35.90 13.09 37.54 11.54Q39.17 9.98 41.38 9.12Q43.58 8.26 46.18 8.26L46.18 8.26Q48.80 8.26 50.99 9.12Q53.18 9.98 54.82 11.54Q56.45 13.09 57.34 15.18Q58.24 17.28 58.24 19.78L58.24 19.78Q58.24 22.27 57.34 24.38Q56.45 26.50 54.82 28.03Q53.18 29.57 50.99 30.43Q48.80 31.30 46.21 31.30ZM46.18 27.65L46.18 27.65Q47.87 27.65 49.31 27.07Q50.75 26.50 51.81 25.42Q52.86 24.35 53.46 22.93Q54.05 21.50 54.05 19.78L54.05 19.78Q54.05 18.05 53.46 16.62Q52.86 15.20 51.81 14.13Q50.75 13.06 49.31 12.48Q47.87 11.90 46.18 11.90L46.18 11.90Q44.48 11.90 43.06 12.48Q41.63 13.06 40.56 14.13Q39.49 15.20 38.90 16.62Q38.30 18.05 38.30 19.78L38.30 19.78Q38.30 21.47 38.90 22.91Q39.49 24.35 40.54 25.42Q41.60 26.50 43.04 27.07Q44.48 27.65 46.18 27.65ZM81.15 31.30L81.15 31.30Q78.53 31.30 76.32 30.43Q74.11 29.57 72.48 28.02Q70.85 26.46 69.95 24.37Q69.06 22.27 69.06 19.78L69.06 19.78Q69.06 17.28 69.95 15.18Q70.85 13.09 72.48 11.54Q74.11 9.98 76.32 9.12Q78.53 8.26 81.12 8.26L81.12 8.26Q83.74 8.26 85.94 9.12Q88.13 9.98 89.76 11.54Q91.39 13.09 92.29 15.18Q93.18 17.28 93.18 19.78L93.18 19.78Q93.18 22.27 92.29 24.38Q91.39 26.50 89.76 28.03Q88.13 29.57 85.94 30.43Q83.74 31.30 81.15 31.30ZM81.12 27.65L81.12 27.65Q82.82 27.65 84.26 27.07Q85.70 26.50 86.75 25.42Q87.81 24.35 88.40 22.93Q88.99 21.50 88.99 19.78L88.99 19.78Q88.99 18.05 88.40 16.62Q87.81 15.20 86.75 14.13Q85.70 13.06 84.26 12.48Q82.82 11.90 81.12 11.90L81.12 11.90Q79.42 11.90 78 12.48Q76.58 13.06 75.50 14.13Q74.43 15.20 73.84 16.62Q73.25 18.05 73.25 19.78L73.25 19.78Q73.25 21.47 73.84 22.91Q74.43 24.35 75.49 25.42Q76.54 26.50 77.98 27.07Q79.42 27.65 81.12 27.65ZM115.39 30.98L105.60 30.98L105.60 8.58L115.39 8.58Q119.04 8.58 121.79 9.98Q124.54 11.39 126.08 13.89Q127.62 16.38 127.62 19.78L127.62 19.78Q127.62 23.14 126.08 25.65Q124.54 28.16 121.79 29.57Q119.04 30.98 115.39 30.98L115.39 30.98ZM109.76 12.10L109.76 27.46L115.20 27.46Q117.73 27.46 119.57 26.50Q121.41 25.54 122.42 23.81Q123.42 22.08 123.42 19.78L123.42 19.78Q123.42 17.44 122.42 15.73Q121.41 14.02 119.57 13.06Q117.73 12.10 115.20 12.10L115.20 12.10L109.76 12.10ZM160.67 22.40L160.67 18.88L171.84 18.88L171.84 22.40L160.67 22.40ZM161.02 12.06L161.02 30.98L156.86 30.98L156.86 8.58L173.22 8.58L173.22 12.06L161.02 12.06ZM201.12 30.98L185.25 30.98L185.25 8.58L189.41 8.58L189.41 27.46L201.12 27.46L201.12 30.98ZM216.58 30.98L212.42 30.98L212.42 8.58L216.58 8.58L216.58 30.98ZM234.78 30.98L230.62 30.98L230.62 8.58L239.84 8.58Q242.82 8.58 244.94 9.54Q247.07 10.50 248.22 12.29Q249.38 14.08 249.38 16.54L249.38 16.54Q249.38 19.01 248.22 20.80Q247.07 22.59 244.94 23.55Q242.82 24.51 239.84 24.51L239.84 24.51L232.93 24.51L234.78 22.56L234.78 30.98ZM234.78 10.05L234.78 23.01L232.93 20.99L239.65 20.99Q242.40 20.99 243.79 19.82Q245.18 18.66 245.18 16.54L245.18 16.54Q245.18 14.40 243.79 13.25Q242.40 12.10 239.65 12.10L239.65 12.10L232.93 12.10L234.78 10.05ZM266.02 30.98L261.86 30.98L261.86 8.58L271.07 8.58Q274.05 8.58 276.18 9.54Q278.30 10.50 279.46 12.29Q280.61 14.08 280.61 16.54L280.61 16.54Q280.61 19.01 279.46 20.80Q278.30 22.59 276.18 23.55Q274.05 24.51 271.07 24.51L271.07 24.51L264.16 24.51L266.02 22.56L266.02 30.98ZM266.02 10.05L266.02 23.01L264.16 20.99L270.88 20.99Q273.63 20.99 275.02 19.82Q276.42 18.66 276.42 16.54L276.42 16.54Q276.42 14.40 275.02 13.25Q273.63 12.10 270.88 12.10L270.88 12.10L264.16 12.10L266.02 10.05ZM297.25 30.98L293.09 30.98L293.09 8.58L297.25 8.58L297.25 30.98ZM315.42 30.98L311.30 30.98L311.30 8.58L314.72 8.58L328.77 25.82L327.07 25.82L327.07 8.58L331.20 8.58L331.20 30.98L327.78 30.98L313.73 13.73L315.42 13.73L315.42 30.98ZM372.77 30.98L368.67 30.98L358.88 8.58L363.39 8.58L372.13 28.83L369.54 28.83L378.37 8.58L382.53 8.58L372.77 30.98ZM397.54 30.98L393.38 30.98L393.38 8.58L397.54 8.58L397.54 30.98ZM422.72 30.98L411.58 30.98L411.58 8.58L422.08 8.58Q426.11 8.58 428.22 10.16Q430.34 11.74 430.34 14.40L430.34 14.40Q430.34 16.19 429.50 17.46Q428.67 18.72 427.28 19.41Q425.89 20.10 424.26 20.10L424.26 20.10L424.83 18.94Q426.72 18.94 428.22 19.63Q429.73 20.32 430.61 21.63Q431.49 22.94 431.49 24.90L431.49 24.90Q431.49 27.78 429.28 29.38Q427.07 30.98 422.72 30.98L422.72 30.98ZM415.74 11.84L415.74 27.71L422.46 27.71Q424.80 27.71 426.05 26.94Q427.30 26.18 427.30 24.48L427.30 24.48Q427.30 22.82 426.05 22.03Q424.80 21.25 422.46 21.25L422.46 21.25L415.42 21.25L415.42 18.02L421.63 18.02Q423.81 18.02 424.98 17.25Q426.14 16.48 426.14 14.94L426.14 14.94Q426.14 13.38 424.98 12.61Q423.81 11.84 421.63 11.84L421.63 11.84L415.74 11.84ZM447.78 21.31L447.78 17.89L458.91 17.89L458.91 21.31L447.78 21.31ZM448.10 12.06L448.10 27.49L460.74 27.49L460.74 30.98L443.94 30.98L443.94 8.58L460.29 8.58L460.29 12.06L448.10 12.06ZM480.32 31.30L480.32 31.30Q477.70 31.30 475.30 30.54Q472.90 29.79 471.49 28.61L471.49 28.61L472.93 25.38Q474.27 26.43 476.26 27.14Q478.24 27.84 480.32 27.84L480.32 27.84Q482.08 27.84 483.17 27.46Q484.26 27.07 484.77 26.42Q485.28 25.76 485.28 24.93L485.28 24.93Q485.28 23.90 484.54 23.28Q483.81 22.66 482.64 22.29Q481.47 21.92 480.05 21.60Q478.62 21.28 477.20 20.85Q475.78 20.42 474.61 19.73Q473.44 19.04 472.70 17.89Q471.97 16.74 471.97 14.94L471.97 14.94Q471.97 13.12 472.94 11.60Q473.92 10.08 475.92 9.17Q477.92 8.26 480.99 8.26L480.99 8.26Q483.01 8.26 484.99 8.77Q486.98 9.28 488.45 10.24L488.45 10.24L487.14 13.47Q485.63 12.58 484.03 12.14Q482.43 11.71 480.96 11.71L480.96 11.71Q479.23 11.71 478.16 12.13Q477.09 12.54 476.59 13.22Q476.10 13.89 476.10 14.75L476.10 14.75Q476.10 15.78 476.82 16.40Q477.54 17.02 478.70 17.38Q479.87 17.73 481.31 18.06Q482.75 18.40 484.18 18.82Q485.60 19.23 486.77 19.90Q487.94 20.58 488.66 21.73Q489.38 22.88 489.38 24.64L489.38 24.64Q489.38 26.43 488.40 27.95Q487.42 29.47 485.41 30.38Q483.39 31.30 480.32 31.30Z" transform="translate(0, 0)"></path></g></svg></svg>