<svg xmlns="http://www.w3.org/2000/svg" viewBox="-26.48498428344726 56.80400085449219 627.9700012207031 425.3519983978272"><rect height="100%" width="100%" x="-26.48498428344726" y="56.80400085449219" fill="rgba(255, 255, 255, 1)"/> <svg xmlns="http://www.w3.org/2000/svg" xmlns:xlink="http://www.w3.org/1999/xlink" xmlnsSerif="http://www.serif.com/" viewBox="324.33087158203125 324.33245849609375 1351.33251953125 1351.330810546875" version="1.1" xml:space="preserve" height="229.9921875" width="230" y="126.80400085449219" x="172.5000114440918" preserveAspectRatio="xMinYMin" fill-rule="evenodd" clip-rule="evenodd" stroke-linejoin="round" stroke-miterlimit="2" style="overflow: visible;"><path transform="matrix(1.54202,0,0,1.54202,-480.343,167.307)" d="M896.648,101.831L1398.17,101.831L1304.42,289.331L1154.42,289.331L1185.67,226.831L984.148,226.831L859.148,476.831L859.331,476.831L960,678.169L990,618.169L1065,768.169L960,978.169L709.24,476.648L896.648,101.831Z" style="fill: #000000; fill-opacity: 1;"></path><path transform="matrix(1.54202,0,0,1.54202,-480.343,167.307)" d="M521.831,101.831L836.648,101.831L679.24,416.648L521.831,101.831Z" style="fill: #25A1B0; fill-opacity: 1;"></path><path transform="matrix(1.54202,0,0,1.54202,-480.343,167.307)" d="M1273.17,351.831L1095,708.169L1020,558.169L1060.67,476.831L919.331,476.831L919.24,476.648L981.648,351.831L1273.17,351.831Z" style="fill: #000000; fill-opacity: 1;"></path></svg> <svg y="389.11600024414065" viewBox="1.409999966621399 8.260000228881836 487.9700012207031 23.03999900817871" x="43.51501571655274" height="23.03999900817871" width="487.9700012207031" xmlns="http://www.w3.org/2000/svg" style="overflow: visible;"><g fill="#000000" fill-opacity="1" style=""><path d="M13.47 31.30L13.47 31.30Q10.85 31.30 8.66 30.45Q6.46 29.60 4.83 28.05Q3.20 26.50 2.30 24.38Q1.41 22.27 1.41 19.78L1.41 19.78Q1.41 17.28 2.30 15.17Q3.20 13.06 4.85 11.50Q6.50 9.95 8.70 9.10Q10.91 8.26 13.54 8.26L13.54 8.26Q16.38 8.26 18.67 9.18Q20.96 10.11 22.53 11.90L22.53 11.90L19.90 14.46Q18.59 13.15 17.07 12.53Q15.55 11.90 13.73 11.90L13.73 11.90Q11.97 11.90 10.46 12.48Q8.96 13.06 7.87 14.11Q6.78 15.17 6.19 16.61Q5.60 18.05 5.60 19.78L5.60 19.78Q5.60 21.47 6.19 22.91Q6.78 24.35 7.87 25.42Q8.96 26.50 10.43 27.07Q11.90 27.65 13.70 27.65L13.70 27.65Q15.36 27.65 16.91 27.12Q18.46 26.59 19.87 25.34L19.87 25.34L22.24 28.45Q20.48 29.86 18.16 30.58Q15.84 31.30 13.47 31.30ZM22.24 28.45L18.30 27.90L18.30 19.52L22.24 19.52L22.24 28.45ZM46.21 31.30L46.21 31.30Q43.58 31.30 41.38 30.43Q39.17 29.57 37.54 28.02Q35.90 26.46 35.01 24.37Q34.11 22.27 34.11 19.78L34.11 19.78Q34.11 17.28 35.01 15.18Q35.90 13.09 37.54 11.54Q39.17 9.98 41.38 9.12Q43.58 8.26 46.18 8.26L46.18 8.26Q48.80 8.26 50.99 9.12Q53.18 9.98 54.82 11.54Q56.45 13.09 57.34 15.18Q58.24 17.28 58.24 19.78L58.24 19.78Q58.24 22.27 57.34 24.38Q56.45 26.50 54.82 28.03Q53.18 29.57 50.99 30.43Q48.80 31.30 46.21 31.30ZM46.18 27.65L46.18 27.65Q47.87 27.65 49.31 27.07Q50.75 26.50 51.81 25.42Q52.86 24.35 53.46 22.93Q54.05 21.50 54.05 19.78L54.05 19.78Q54.05 18.05 53.46 16.62Q52.86 15.20 51.81 14.13Q50.75 13.06 49.31 12.48Q47.87 11.90 46.18 11.90L46.18 11.90Q44.48 11.90 43.06 12.48Q41.63 13.06 40.56 14.13Q39.49 15.20 38.90 16.62Q38.30 18.05 38.30 19.78L38.30 19.78Q38.30 21.47 38.90 22.91Q39.49 24.35 40.54 25.42Q41.60 26.50 43.04 27.07Q44.48 27.65 46.18 27.65ZM81.15 31.30L81.15 31.30Q78.53 31.30 76.32 30.43Q74.11 29.57 72.48 28.02Q70.85 26.46 69.95 24.37Q69.06 22.27 69.06 19.78L69.06 19.78Q69.06 17.28 69.95 15.18Q70.85 13.09 72.48 11.54Q74.11 9.98 76.32 9.12Q78.53 8.26 81.12 8.26L81.12 8.26Q83.74 8.26 85.94 9.12Q88.13 9.98 89.76 11.54Q91.39 13.09 92.29 15.18Q93.18 17.28 93.18 19.78L93.18 19.78Q93.18 22.27 92.29 24.38Q91.39 26.50 89.76 28.03Q88.13 29.57 85.94 30.43Q83.74 31.30 81.15 31.30ZM81.12 27.65L81.12 27.65Q82.82 27.65 84.26 27.07Q85.70 26.50 86.75 25.42Q87.81 24.35 88.40 22.93Q88.99 21.50 88.99 19.78L88.99 19.78Q88.99 18.05 88.40 16.62Q87.81 15.20 86.75 14.13Q85.70 13.06 84.26 12.48Q82.82 11.90 81.12 11.90L81.12 11.90Q79.42 11.90 78 12.48Q76.58 13.06 75.50 14.13Q74.43 15.20 73.84 16.62Q73.25 18.05 73.25 19.78L73.25 19.78Q73.25 21.47 73.84 22.91Q74.43 24.35 75.49 25.42Q76.54 26.50 77.98 27.07Q79.42 27.65 81.12 27.65ZM115.39 30.98L105.60 30.98L105.60 8.58L115.39 8.58Q119.04 8.58 121.79 9.98Q124.54 11.39 126.08 13.89Q127.62 16.38 127.62 19.78L127.62 19.78Q127.62 23.14 126.08 25.65Q124.54 28.16 121.79 29.57Q119.04 30.98 115.39 30.98L115.39 30.98ZM109.76 12.10L109.76 27.46L115.20 27.46Q117.73 27.46 119.57 26.50Q121.41 25.54 122.42 23.81Q123.42 22.08 123.42 19.78L123.42 19.78Q123.42 17.44 122.42 15.73Q121.41 14.02 119.57 13.06Q117.73 12.10 115.20 12.10L115.20 12.10L109.76 12.10ZM160.67 22.40L160.67 18.88L171.84 18.88L171.84 22.40L160.67 22.40ZM161.02 12.06L161.02 30.98L156.86 30.98L156.86 8.58L173.22 8.58L173.22 12.06L161.02 12.06ZM201.12 30.98L185.25 30.98L185.25 8.58L189.41 8.58L189.41 27.46L201.12 27.46L201.12 30.98ZM216.58 30.98L212.42 30.98L212.42 8.58L216.58 8.58L216.58 30.98ZM234.78 30.98L230.62 30.98L230.62 8.58L239.84 8.58Q242.82 8.58 244.94 9.54Q247.07 10.50 248.22 12.29Q249.38 14.08 249.38 16.54L249.38 16.54Q249.38 19.01 248.22 20.80Q247.07 22.59 244.94 23.55Q242.82 24.51 239.84 24.51L239.84 24.51L232.93 24.51L234.78 22.56L234.78 30.98ZM234.78 10.05L234.78 23.01L232.93 20.99L239.65 20.99Q242.40 20.99 243.79 19.82Q245.18 18.66 245.18 16.54L245.18 16.54Q245.18 14.40 243.79 13.25Q242.40 12.10 239.65 12.10L239.65 12.10L232.93 12.10L234.78 10.05ZM266.02 30.98L261.86 30.98L261.86 8.58L271.07 8.58Q274.05 8.58 276.18 9.54Q278.30 10.50 279.46 12.29Q280.61 14.08 280.61 16.54L280.61 16.54Q280.61 19.01 279.46 20.80Q278.30 22.59 276.18 23.55Q274.05 24.51 271.07 24.51L271.07 24.51L264.16 24.51L266.02 22.56L266.02 30.98ZM266.02 10.05L266.02 23.01L264.16 20.99L270.88 20.99Q273.63 20.99 275.02 19.82Q276.42 18.66 276.42 16.54L276.42 16.54Q276.42 14.40 275.02 13.25Q273.63 12.10 270.88 12.10L270.88 12.10L264.16 12.10L266.02 10.05ZM297.25 30.98L293.09 30.98L293.09 8.58L297.25 8.58L297.25 30.98ZM315.42 30.98L311.30 30.98L311.30 8.58L314.72 8.58L328.77 25.82L327.07 25.82L327.07 8.58L331.20 8.58L331.20 30.98L327.78 30.98L313.73 13.73L315.42 13.73L315.42 30.98ZM372.77 30.98L368.67 30.98L358.88 8.58L363.39 8.58L372.13 28.83L369.54 28.83L378.37 8.58L382.53 8.58L372.77 30.98ZM397.54 30.98L393.38 30.98L393.38 8.58L397.54 8.58L397.54 30.98ZM422.72 30.98L411.58 30.98L411.58 8.58L422.08 8.58Q426.11 8.58 428.22 10.16Q430.34 11.74 430.34 14.40L430.34 14.40Q430.34 16.19 429.50 17.46Q428.67 18.72 427.28 19.41Q425.89 20.10 424.26 20.10L424.26 20.10L424.83 18.94Q426.72 18.94 428.22 19.63Q429.73 20.32 430.61 21.63Q431.49 22.94 431.49 24.90L431.49 24.90Q431.49 27.78 429.28 29.38Q427.07 30.98 422.72 30.98L422.72 30.98ZM415.74 11.84L415.74 27.71L422.46 27.71Q424.80 27.71 426.05 26.94Q427.30 26.18 427.30 24.48L427.30 24.48Q427.30 22.82 426.05 22.03Q424.80 21.25 422.46 21.25L422.46 21.25L415.42 21.25L415.42 18.02L421.63 18.02Q423.81 18.02 424.98 17.25Q426.14 16.48 426.14 14.94L426.14 14.94Q426.14 13.38 424.98 12.61Q423.81 11.84 421.63 11.84L421.63 11.84L415.74 11.84ZM447.78 21.31L447.78 17.89L458.91 17.89L458.91 21.31L447.78 21.31ZM448.10 12.06L448.10 27.49L460.74 27.49L460.74 30.98L443.94 30.98L443.94 8.58L460.29 8.58L460.29 12.06L448.10 12.06ZM480.32 31.30L480.32 31.30Q477.70 31.30 475.30 30.54Q472.90 29.79 471.49 28.61L471.49 28.61L472.93 25.38Q474.27 26.43 476.26 27.14Q478.24 27.84 480.32 27.84L480.32 27.84Q482.08 27.84 483.17 27.46Q484.26 27.07 484.77 26.42Q485.28 25.76 485.28 24.93L485.28 24.93Q485.28 23.90 484.54 23.28Q483.81 22.66 482.64 22.29Q481.47 21.92 480.05 21.60Q478.62 21.28 477.20 20.85Q475.78 20.42 474.61 19.73Q473.44 19.04 472.70 17.89Q471.97 16.74 471.97 14.94L471.97 14.94Q471.97 13.12 472.94 11.60Q473.92 10.08 475.92 9.17Q477.92 8.26 480.99 8.26L480.99 8.26Q483.01 8.26 484.99 8.77Q486.98 9.28 488.45 10.24L488.45 10.24L487.14 13.47Q485.63 12.58 484.03 12.14Q482.43 11.71 480.96 11.71L480.96 11.71Q479.23 11.71 478.16 12.13Q477.09 12.54 476.59 13.22Q476.10 13.89 476.10 14.75L476.10 14.75Q476.10 15.78 476.82 16.40Q477.54 17.02 478.70 17.38Q479.87 17.73 481.31 18.06Q482.75 18.40 484.18 18.82Q485.60 19.23 486.77 19.90Q487.94 20.58 488.66 21.73Q489.38 22.88 489.38 24.64L489.38 24.64Q489.38 26.43 488.40 27.95Q487.42 29.47 485.41 30.38Q483.39 31.30 480.32 31.30Z" transform="translate(0, 0)"></path></g></svg></svg>