
            <svg xmlns="http://www.w3.org/2000/svg">
                <filter id="grayscale">
                    <feColorMatrix type="saturate" values="0"/>
                </filter>
                <g filter="url(#grayscale)">
                    <svg xmlns="http://www.w3.org/2000/svg" viewBox="20 175.38874352590233 535 224.22251294819534"> <g transform="rotate(0 287.50000000000006 274.3467041476351)"><svg xmlns="http://www.w3.org/2000/svg" xmlns:xlink="http://www.w3.org/1999/xlink" xmlnsSerif="http://www.serif.com/" viewBox="324.33087158203125 324.33245849609375 1351.33251953125 1351.330810546875" version="1.1" xml:space="preserve" height="57.9159212434655" width="57.91788856304984" y="245.38874352590233" x="258.54105571847515" preserveAspectRatio="xMinYMin" fill-rule="evenodd" clip-rule="evenodd" stroke-linejoin="round" stroke-miterlimit="2" style="overflow: visible;"><path transform="matrix(1.54202,0,0,1.54202,-480.343,167.307)" d="M896.648,101.831L1398.17,101.831L1304.42,289.331L1154.42,289.331L1185.67,226.831L984.148,226.831L859.148,476.831L859.331,476.831L960,678.169L990,618.169L1065,768.169L960,978.169L709.24,476.648L896.648,101.831Z" style="fill: #000000; fill-opacity: 1;"></path><path transform="matrix(1.54202,0,0,1.54202,-480.343,167.307)" d="M521.831,101.831L836.648,101.831L679.24,416.648L521.831,101.831Z" style="fill: #25A1B0; fill-opacity: 1;"></path><path transform="matrix(1.54202,0,0,1.54202,-480.343,167.307)" d="M1273.17,351.831L1095,708.169L1020,558.169L1060.67,476.831L919.331,476.831L919.24,476.648L981.648,351.831L1273.17,351.831Z" style="fill: #000000; fill-opacity: 1;"></path></svg></g> <g transform="rotate(0 287.5 320.28625666483254)"><svg y="310.9612568555674" viewBox="1.1399999856948853 6.679999828338623 395 18.649999618530273" x="90" height="18.649999618530273" width="395" xmlns="http://www.w3.org/2000/svg" style="overflow: visible;"><g fill="#000000" fill-opacity="1" style=""><path d="M10.91 25.33L10.91 25.33Q8.78 25.33 7.01 24.65Q5.23 23.96 3.91 22.70Q2.59 21.45 1.87 19.74Q1.14 18.03 1.14 16.01L1.14 16.01Q1.14 13.99 1.87 12.28Q2.59 10.57 3.92 9.31Q5.26 8.06 7.05 7.37Q8.83 6.68 10.96 6.68L10.96 6.68Q13.26 6.68 15.11 7.43Q16.97 8.19 18.24 9.64L18.24 9.64L16.11 11.71Q15.05 10.65 13.82 10.14Q12.59 9.64 11.11 9.64L11.11 9.64Q9.69 9.64 8.47 10.10Q7.25 10.57 6.37 11.42Q5.49 12.28 5.01 13.44Q4.53 14.61 4.53 16.01L4.53 16.01Q4.53 17.38 5.01 18.55Q5.49 19.71 6.37 20.58Q7.25 21.45 8.44 21.91Q9.64 22.38 11.09 22.38L11.09 22.38Q12.43 22.38 13.69 21.95Q14.95 21.53 16.09 20.52L16.09 20.52L18.00 23.03Q16.58 24.17 14.70 24.75Q12.82 25.33 10.91 25.33ZM18.00 23.03L14.82 22.59L14.82 15.80L18.00 15.80L18.00 23.03ZM37.40 25.33L37.40 25.33Q35.28 25.33 33.49 24.63Q31.71 23.93 30.38 22.68Q29.06 21.42 28.34 19.73Q27.61 18.03 27.61 16.01L27.61 16.01Q27.61 13.99 28.34 12.29Q29.06 10.59 30.38 9.34Q31.71 8.08 33.49 7.38Q35.28 6.68 37.38 6.68L37.38 6.68Q39.50 6.68 41.28 7.38Q43.05 8.08 44.37 9.34Q45.69 10.59 46.42 12.29Q47.14 13.99 47.14 16.01L47.14 16.01Q47.14 18.03 46.42 19.74Q45.69 21.45 44.37 22.69Q43.05 23.93 41.28 24.63Q39.50 25.33 37.40 25.33ZM37.38 22.38L37.38 22.38Q38.75 22.38 39.92 21.91Q41.08 21.45 41.94 20.58Q42.79 19.71 43.27 18.56Q43.75 17.41 43.75 16.01L43.75 16.01Q43.75 14.61 43.27 13.46Q42.79 12.30 41.94 11.44Q41.08 10.57 39.92 10.10Q38.75 9.64 37.38 9.64L37.38 9.64Q36.01 9.64 34.85 10.10Q33.70 10.57 32.83 11.44Q31.96 12.30 31.49 13.46Q31.01 14.61 31.01 16.01L31.01 16.01Q31.01 17.38 31.49 18.55Q31.96 19.71 32.82 20.58Q33.67 21.45 34.84 21.91Q36.01 22.38 37.38 22.38ZM65.69 25.33L65.69 25.33Q63.57 25.33 61.78 24.63Q59.99 23.93 58.67 22.68Q57.35 21.42 56.62 19.73Q55.90 18.03 55.90 16.01L55.90 16.01Q55.90 13.99 56.62 12.29Q57.35 10.59 58.67 9.34Q59.99 8.08 61.78 7.38Q63.57 6.68 65.66 6.68L65.66 6.68Q67.79 6.68 69.56 7.38Q71.34 8.08 72.66 9.34Q73.98 10.59 74.71 12.29Q75.43 13.99 75.43 16.01L75.43 16.01Q75.43 18.03 74.71 19.74Q73.98 21.45 72.66 22.69Q71.34 23.93 69.56 24.63Q67.79 25.33 65.69 25.33ZM65.66 22.38L65.66 22.38Q67.04 22.38 68.20 21.91Q69.37 21.45 70.22 20.58Q71.08 19.71 71.56 18.56Q72.04 17.41 72.04 16.01L72.04 16.01Q72.04 14.61 71.56 13.46Q71.08 12.30 70.22 11.44Q69.37 10.57 68.20 10.10Q67.04 9.64 65.66 9.64L65.66 9.64Q64.29 9.64 63.14 10.10Q61.99 10.57 61.12 11.44Q60.25 12.30 59.77 13.46Q59.29 14.61 59.29 16.01L59.29 16.01Q59.29 17.38 59.77 18.55Q60.25 19.71 61.11 20.58Q61.96 21.45 63.13 21.91Q64.29 22.38 65.66 22.38ZM93.41 25.07L85.48 25.07L85.48 6.94L93.41 6.94Q96.36 6.94 98.59 8.08Q100.82 9.22 102.06 11.24Q103.30 13.26 103.30 16.01L103.30 16.01Q103.30 18.73 102.06 20.76Q100.82 22.79 98.59 23.93Q96.36 25.07 93.41 25.07L93.41 25.07ZM88.85 9.79L88.85 22.23L93.25 22.23Q95.30 22.23 96.79 21.45Q98.28 20.67 99.09 19.27Q99.91 17.87 99.91 16.01L99.91 16.01Q99.91 14.12 99.09 12.73Q98.28 11.35 96.79 10.57Q95.30 9.79 93.25 9.79L93.25 9.79L88.85 9.79ZM130.06 18.13L130.06 15.28L139.10 15.28L139.10 18.13L130.06 18.13ZM130.35 9.77L130.35 25.07L126.98 25.07L126.98 6.94L140.21 6.94L140.21 9.77L130.35 9.77ZM162.80 25.07L149.95 25.07L149.95 6.94L153.32 6.94L153.32 22.23L162.80 22.23L162.80 25.07ZM175.31 25.07L171.95 25.07L171.95 6.94L175.31 6.94L175.31 25.07ZM190.05 25.07L186.68 25.07L186.68 6.94L194.15 6.94Q196.55 6.94 198.28 7.72Q200.00 8.50 200.93 9.95Q201.86 11.40 201.86 13.39L201.86 13.39Q201.86 15.39 200.93 16.84Q200.00 18.29 198.28 19.06Q196.55 19.84 194.15 19.84L194.15 19.84L188.55 19.84L190.05 18.26L190.05 25.07ZM190.05 8.13L190.05 18.62L188.55 16.99L193.99 16.99Q196.22 16.99 197.34 16.05Q198.47 15.10 198.47 13.39L198.47 13.39Q198.47 11.66 197.34 10.72Q196.22 9.79 193.99 9.79L193.99 9.79L188.55 9.79L190.05 8.13ZM215.33 25.07L211.97 25.07L211.97 6.94L219.43 6.94Q221.84 6.94 223.56 7.72Q225.28 8.50 226.21 9.95Q227.15 11.40 227.15 13.39L227.15 13.39Q227.15 15.39 226.21 16.84Q225.28 18.29 223.56 19.06Q221.84 19.84 219.43 19.84L219.43 19.84L213.83 19.84L215.33 18.26L215.33 25.07ZM215.33 8.13L215.33 18.62L213.83 16.99L219.27 16.99Q221.50 16.99 222.63 16.05Q223.75 15.10 223.75 13.39L223.75 13.39Q223.75 11.66 222.63 10.72Q221.50 9.79 219.27 9.79L219.27 9.79L213.83 9.79L215.33 8.13ZM240.62 25.07L237.25 25.07L237.25 6.94L240.62 6.94L240.62 25.07ZM255.33 25.07L251.99 25.07L251.99 6.94L254.76 6.94L266.13 20.90L264.76 20.90L264.76 6.94L268.10 6.94L268.10 25.07L265.33 25.07L253.96 11.11L255.33 11.11L255.33 25.07ZM301.75 25.07L298.43 25.07L290.51 6.94L294.16 6.94L301.23 23.34L299.13 23.34L306.28 6.94L309.65 6.94L301.75 25.07ZM321.80 25.07L318.43 25.07L318.43 6.94L321.80 6.94L321.80 25.07ZM342.18 25.07L333.17 25.07L333.17 6.94L341.66 6.94Q344.93 6.94 346.64 8.22Q348.35 9.51 348.35 11.66L348.35 11.66Q348.35 13.11 347.67 14.13Q347.00 15.15 345.87 15.71Q344.75 16.27 343.43 16.27L343.43 16.27L343.89 15.33Q345.42 15.33 346.64 15.89Q347.86 16.45 348.57 17.51Q349.28 18.57 349.28 20.15L349.28 20.15Q349.28 22.48 347.49 23.78Q345.71 25.07 342.18 25.07L342.18 25.07ZM336.54 9.58L336.54 22.43L341.98 22.43Q343.87 22.43 344.88 21.81Q345.89 21.19 345.89 19.82L345.89 19.82Q345.89 18.47 344.88 17.83Q343.87 17.20 341.98 17.20L341.98 17.20L336.28 17.20L336.28 14.58L341.30 14.58Q343.06 14.58 344.01 13.96Q344.95 13.34 344.95 12.10L344.95 12.10Q344.95 10.83 344.01 10.21Q343.06 9.58 341.30 9.58L341.30 9.58L336.54 9.58ZM362.46 17.25L362.46 14.48L371.48 14.48L371.48 17.25L362.46 17.25ZM362.72 9.77L362.72 22.25L372.96 22.25L372.96 25.07L359.36 25.07L359.36 6.94L372.59 6.94L372.59 9.77L362.72 9.77ZM388.81 25.33L388.81 25.33Q386.68 25.33 384.74 24.72Q382.80 24.12 381.66 23.16L381.66 23.16L382.82 20.54Q383.91 21.40 385.52 21.97Q387.12 22.54 388.81 22.54L388.81 22.54Q390.23 22.54 391.11 22.23Q391.99 21.91 392.41 21.38Q392.82 20.85 392.82 20.18L392.82 20.18Q392.82 19.35 392.23 18.84Q391.63 18.34 390.69 18.04Q389.74 17.74 388.59 17.48Q387.44 17.23 386.28 16.88Q385.13 16.53 384.18 15.97Q383.24 15.41 382.64 14.48Q382.05 13.55 382.05 12.10L382.05 12.10Q382.05 10.62 382.84 9.39Q383.63 8.16 385.25 7.42Q386.87 6.68 389.35 6.68L389.35 6.68Q390.98 6.68 392.59 7.10Q394.20 7.51 395.39 8.29L395.39 8.29L394.33 10.91Q393.11 10.18 391.81 9.83Q390.52 9.48 389.33 9.48L389.33 9.48Q387.93 9.48 387.06 9.82Q386.19 10.15 385.79 10.70Q385.39 11.24 385.39 11.94L385.39 11.94Q385.39 12.77 385.97 13.28Q386.55 13.78 387.50 14.07Q388.45 14.35 389.61 14.62Q390.78 14.89 391.93 15.23Q393.08 15.57 394.03 16.11Q394.97 16.66 395.56 17.59Q396.14 18.52 396.14 19.95L396.14 19.95Q396.14 21.40 395.35 22.63Q394.56 23.86 392.93 24.60Q391.29 25.33 388.81 25.33Z" transform="translate(0, 0)"></path></g></svg></g></svg>
                </g>
            </svg>
        