<svg xmlns="http://www.w3.org/2000/svg" viewBox="20 191.35425471832787 535.0015649418701 192.29149056334427"><rect height="100%" width="100%" x="20" y="191.35425471832787" fill="rgba(255, 255, 255, 1)"/> <g transform="rotate(0 116.14663341460061 287.5)"><svg xmlns="http://www.w3.org/2000/svg" xmlns:xlink="http://www.w3.org/1999/xlink" xmlnsSerif="http://www.serif.com/" viewBox="324.33087158203125 324.33245849609375 1351.33251953125 1351.330810546875" version="1.1" xml:space="preserve" height="52.29149056334425" width="52.293266829201215" y="261.35425471832787" x="90" preserveAspectRatio="xMinYMin" fill-rule="evenodd" clip-rule="evenodd" stroke-linejoin="round" stroke-miterlimit="2" style="overflow: visible;"><path transform="matrix(1.54202,0,0,1.54202,-480.343,167.307)" d="M896.648,101.831L1398.17,101.831L1304.42,289.331L1154.42,289.331L1185.67,226.831L984.148,226.831L859.148,476.831L859.331,476.831L960,678.169L990,618.169L1065,768.169L960,978.169L709.24,476.648L896.648,101.831Z" style="fill: #000000; fill-opacity: 1;"></path><path transform="matrix(1.54202,0,0,1.54202,-480.343,167.307)" d="M521.831,101.831L836.648,101.831L679.24,416.648L521.831,101.831Z" style="fill: #25A1B0; fill-opacity: 1;"></path><path transform="matrix(1.54202,0,0,1.54202,-480.343,167.307)" d="M1273.17,351.831L1095,708.169L1020,558.169L1060.67,476.831L919.331,476.831L919.24,476.648L981.648,351.831L1273.17,351.831Z" style="fill: #000000; fill-opacity: 1;"></path></svg></g> <g transform="rotate(0 318.87656494187013 287.50127620569003)"><svg y="279.6562764154984" viewBox="0.9600000381469727 5.619999885559082 332.25 15.6899995803833" x="152.7515649418701" height="15.6899995803833" width="332.25" xmlns="http://www.w3.org/2000/svg" style="overflow: visible;"><g fill="#000000" fill-opacity="1" style=""><path d="M9.17 21.31L9.17 21.31Q7.39 21.31 5.89 20.73Q4.40 20.15 3.29 19.10Q2.18 18.04 1.57 16.60Q0.96 15.16 0.96 13.47L0.96 13.47Q0.96 11.77 1.57 10.33Q2.18 8.89 3.30 7.83Q4.42 6.78 5.93 6.20Q7.43 5.62 9.22 5.62L9.22 5.62Q11.16 5.62 12.71 6.25Q14.27 6.89 15.34 8.11L15.34 8.11L13.55 9.85Q12.66 8.95 11.62 8.53Q10.59 8.11 9.35 8.11L9.35 8.11Q8.15 8.11 7.12 8.50Q6.10 8.89 5.36 9.61Q4.62 10.33 4.22 11.31Q3.81 12.29 3.81 13.47L3.81 13.47Q3.81 14.62 4.22 15.60Q4.62 16.58 5.36 17.31Q6.10 18.04 7.10 18.43Q8.11 18.82 9.33 18.82L9.33 18.82Q10.46 18.82 11.52 18.47Q12.57 18.11 13.53 17.26L13.53 17.26L15.14 19.37Q13.94 20.33 12.36 20.82Q10.79 21.31 9.17 21.31ZM15.14 19.37L12.46 19.00L12.46 13.29L15.14 13.29L15.14 19.37ZM31.46 21.31L31.46 21.31Q29.68 21.31 28.17 20.72Q26.67 20.13 25.56 19.08Q24.45 18.02 23.84 16.59Q23.23 15.16 23.23 13.47L23.23 13.47Q23.23 11.77 23.84 10.34Q24.45 8.91 25.56 7.85Q26.67 6.80 28.17 6.21Q29.68 5.62 31.44 5.62L31.44 5.62Q33.23 5.62 34.72 6.21Q36.21 6.80 37.32 7.85Q38.43 8.91 39.04 10.34Q39.65 11.77 39.65 13.47L39.65 13.47Q39.65 15.16 39.04 16.60Q38.43 18.04 37.32 19.09Q36.21 20.13 34.72 20.72Q33.23 21.31 31.46 21.31ZM31.44 18.82L31.44 18.82Q32.60 18.82 33.58 18.43Q34.56 18.04 35.27 17.31Q35.99 16.58 36.40 15.61Q36.80 14.64 36.80 13.47L36.80 13.47Q36.80 12.29 36.40 11.32Q35.99 10.35 35.27 9.62Q34.56 8.89 33.58 8.50Q32.60 8.11 31.44 8.11L31.44 8.11Q30.29 8.11 29.32 8.50Q28.35 8.89 27.62 9.62Q26.89 10.35 26.48 11.32Q26.08 12.29 26.08 13.47L26.08 13.47Q26.08 14.62 26.48 15.60Q26.89 16.58 27.61 17.31Q28.32 18.04 29.31 18.43Q30.29 18.82 31.44 18.82ZM55.25 21.31L55.25 21.31Q53.47 21.31 51.96 20.72Q50.46 20.13 49.35 19.08Q48.24 18.02 47.63 16.59Q47.02 15.16 47.02 13.47L47.02 13.47Q47.02 11.77 47.63 10.34Q48.24 8.91 49.35 7.85Q50.46 6.80 51.96 6.21Q53.47 5.62 55.23 5.62L55.23 5.62Q57.02 5.62 58.51 6.21Q60.00 6.80 61.12 7.85Q62.23 8.91 62.84 10.34Q63.45 11.77 63.45 13.47L63.45 13.47Q63.45 15.16 62.84 16.60Q62.23 18.04 61.12 19.09Q60.00 20.13 58.51 20.72Q57.02 21.31 55.25 21.31ZM55.23 18.82L55.23 18.82Q56.39 18.82 57.37 18.43Q58.35 18.04 59.07 17.31Q59.79 16.58 60.19 15.61Q60.59 14.64 60.59 13.47L60.59 13.47Q60.59 12.29 60.19 11.32Q59.79 10.35 59.07 9.62Q58.35 8.89 57.37 8.50Q56.39 8.11 55.23 8.11L55.23 8.11Q54.08 8.11 53.11 8.50Q52.14 8.89 51.41 9.62Q50.68 10.35 50.28 11.32Q49.87 12.29 49.87 13.47L49.87 13.47Q49.87 14.62 50.28 15.60Q50.68 16.58 51.40 17.31Q52.12 18.04 53.10 18.43Q54.08 18.82 55.23 18.82ZM78.57 21.09L71.90 21.09L71.90 5.84L78.57 5.84Q81.05 5.84 82.93 6.80Q84.80 7.76 85.85 9.46Q86.89 11.16 86.89 13.47L86.89 13.47Q86.89 15.75 85.85 17.46Q84.80 19.17 82.93 20.13Q81.05 21.09 78.57 21.09L78.57 21.09ZM74.73 8.24L74.73 18.69L78.44 18.69Q80.16 18.69 81.41 18.04Q82.66 17.39 83.35 16.21Q84.04 15.03 84.04 13.47L84.04 13.47Q84.04 11.87 83.35 10.71Q82.66 9.54 81.41 8.89Q80.16 8.24 78.44 8.24L78.44 8.24L74.73 8.24ZM109.40 15.25L109.40 12.85L117.00 12.85L117.00 15.25L109.40 15.25ZM109.64 8.21L109.64 21.09L106.81 21.09L106.81 5.84L117.94 5.84L117.94 8.21L109.64 8.21ZM136.94 21.09L126.13 21.09L126.13 5.84L128.96 5.84L128.96 18.69L136.94 18.69L136.94 21.09ZM147.46 21.09L144.63 21.09L144.63 5.84L147.46 5.84L147.46 21.09ZM159.86 21.09L157.03 21.09L157.03 5.84L163.30 5.84Q165.33 5.84 166.78 6.49Q168.23 7.15 169.01 8.37Q169.79 9.59 169.79 11.26L169.79 11.26Q169.79 12.94 169.01 14.16Q168.23 15.38 166.78 16.04Q165.33 16.69 163.30 16.69L163.30 16.69L158.60 16.69L159.86 15.36L159.86 21.09ZM159.86 6.84L159.86 15.67L158.60 14.29L163.17 14.29Q165.05 14.29 165.99 13.50Q166.94 12.70 166.94 11.26L166.94 11.26Q166.94 9.80 165.99 9.02Q165.05 8.24 163.17 8.24L163.17 8.24L158.60 8.24L159.86 6.84ZM181.12 21.09L178.29 21.09L178.29 5.84L184.57 5.84Q186.59 5.84 188.04 6.49Q189.49 7.15 190.28 8.37Q191.06 9.59 191.06 11.26L191.06 11.26Q191.06 12.94 190.28 14.16Q189.49 15.38 188.04 16.04Q186.59 16.69 184.57 16.69L184.57 16.69L179.86 16.69L181.12 15.36L181.12 21.09ZM181.12 6.84L181.12 15.67L179.86 14.29L184.44 14.29Q186.31 14.29 187.26 13.50Q188.21 12.70 188.21 11.26L188.21 11.26Q188.21 9.80 187.26 9.02Q186.31 8.24 184.44 8.24L184.44 8.24L179.86 8.24L181.12 6.84ZM202.39 21.09L199.56 21.09L199.56 5.84L202.39 5.84L202.39 21.09ZM214.77 21.09L211.95 21.09L211.95 5.84L214.29 5.84L223.85 17.58L222.70 17.58L222.70 5.84L225.51 5.84L225.51 21.09L223.18 21.09L213.61 9.35L214.77 9.35L214.77 21.09ZM253.81 21.09L251.02 21.09L244.35 5.84L247.43 5.84L253.37 19.63L251.61 19.63L257.62 5.84L260.46 5.84L253.81 21.09ZM270.67 21.09L267.84 21.09L267.84 5.84L270.67 5.84L270.67 21.09ZM287.82 21.09L280.24 21.09L280.24 5.84L287.39 5.84Q290.13 5.84 291.57 6.92Q293.01 8.00 293.01 9.80L293.01 9.80Q293.01 11.02 292.44 11.89Q291.87 12.75 290.93 13.21Q289.98 13.68 288.87 13.68L288.87 13.68L289.26 12.90Q290.54 12.90 291.57 13.37Q292.59 13.84 293.19 14.73Q293.79 15.62 293.79 16.95L293.79 16.95Q293.79 18.91 292.29 20.00Q290.78 21.09 287.82 21.09L287.82 21.09ZM283.07 8.06L283.07 18.87L287.65 18.87Q289.24 18.87 290.09 18.35Q290.94 17.82 290.94 16.67L290.94 16.67Q290.94 15.53 290.09 15.00Q289.24 14.47 287.65 14.47L287.65 14.47L282.85 14.47L282.85 12.27L287.08 12.27Q288.56 12.27 289.36 11.74Q290.15 11.22 290.15 10.18L290.15 10.18Q290.15 9.11 289.36 8.58Q288.56 8.06 287.08 8.06L287.08 8.06L283.07 8.06ZM304.88 14.51L304.88 12.18L312.46 12.18L312.46 14.51L304.88 14.51ZM305.10 8.21L305.10 18.72L313.71 18.72L313.71 21.09L302.27 21.09L302.27 5.84L313.40 5.84L313.40 8.21L305.10 8.21ZM327.04 21.31L327.04 21.31Q325.25 21.31 323.62 20.80Q321.98 20.28 321.03 19.48L321.03 19.48L322.01 17.28Q322.92 18.00 324.27 18.48Q325.62 18.96 327.04 18.96L327.04 18.96Q328.24 18.96 328.98 18.69Q329.72 18.43 330.07 17.99Q330.42 17.54 330.42 16.97L330.42 16.97Q330.42 16.28 329.92 15.85Q329.41 15.43 328.62 15.18Q327.82 14.92 326.85 14.71Q325.88 14.49 324.92 14.19Q323.95 13.90 323.15 13.43Q322.36 12.96 321.85 12.18Q321.35 11.40 321.35 10.18L321.35 10.18Q321.35 8.93 322.02 7.90Q322.68 6.86 324.04 6.24Q325.41 5.62 327.50 5.62L327.50 5.62Q328.87 5.62 330.22 5.97Q331.57 6.32 332.57 6.97L332.57 6.97L331.68 9.17Q330.66 8.56 329.57 8.27Q328.48 7.97 327.48 7.97L327.48 7.97Q326.30 7.97 325.57 8.26Q324.84 8.54 324.50 9.00Q324.16 9.46 324.16 10.04L324.16 10.04Q324.16 10.74 324.65 11.17Q325.14 11.59 325.94 11.83Q326.73 12.07 327.72 12.30Q328.70 12.53 329.67 12.81Q330.63 13.09 331.43 13.55Q332.23 14.01 332.72 14.79Q333.21 15.58 333.21 16.78L333.21 16.78Q333.21 18.00 332.54 19.03Q331.88 20.07 330.50 20.69Q329.13 21.31 327.04 21.31Z" transform="translate(0, 0)"></path></g></svg></g></svg>